<svg id="Layer_1" data-name="Layer 1" xmlns="http://www.w3.org/2000/svg" viewBox="0 0 500 500"><defs><style>.cls-1{fill:#ec566f;}.cls-2{fill:#fddecc;}.cls-3{fill:#c28abd;}.cls-4{fill:#d8855b;}.cls-5{fill:#f59495;}.cls-6{fill:#f2727d;}.cls-7{fill:#a1acd8;}.cls-8{fill:#eaf4fc;}.cls-9{fill:#270d3d;}.cls-10{fill:#7883bf;}.cls-11{fill:#bedbee;}.cls-12{fill:#8088c3;}.cls-13{fill:#a769ac;}</style></defs><title>female01</title><path class="cls-1" d="M246.21,270.82A16.16,16.16,0,0,1,258.83,269c.89.24,1.91.37,2.86.65.18-1.09.34-2.12.5-3,.37-4.47,2.11-9.46-.36-13.34-2.74-1.32-5.8,1.56-8.57,2a42.83,42.83,0,0,1-9.62,1.74c-2.85-.09-5.69-1-8.53-1a65.56,65.56,0,0,0,5,20.33A15.23,15.23,0,0,1,246.21,270.82Z"/><path class="cls-2" d="M262.8,313.53c22.37-6.71,42.25-24.79,57.43-41.83,9.55-12,10.5-27.95,13.61-42.42A438.09,438.09,0,0,0,340,183.22c-2.29-16.32-9.14-31.74-18.76-45-15.28-23.91-39-43.91-67.56-48.41-18.25-2.94-45.83,13.93-59.58,25.21-11.16,9.92-20.84,22.25-26.75,35.73-2.85,6.73-5.41,13.58-7.62,20.55a403.44,403.44,0,0,0,7.85,58.94c2.22,10.93,4.1,22.08,9.18,32,12.28,23.64,41.15,45,66.51,52.26,2,.6,4.14.81,6.13,1.42A78.89,78.89,0,0,0,262.8,313.53Zm37.83-116.61A19.7,19.7,0,0,0,284.25,198c-1.56.65-3.35,2.85-4.88,1s1.21-3.34,2.64-4.28a23.17,23.17,0,0,1,14.44-4.07A12.72,12.72,0,0,1,303,193,2.35,2.35,0,0,1,300.62,196.92ZM291,142c9.06,2,16,9.85,18.51,18.55a.64.64,0,0,1,0,.09,1.49,1.49,0,0,1-2.07,2.07,3.66,3.66,0,0,1-2-.92c-5.35-3.36-11.42-5.37-17.45-7.08-3.08-1-6.52-1.49-8.94-3.81C273.53,144,285.75,140.22,291,142Zm-55.84,79.38c2.17.11,4.08,1.45,6,2.17,2.45.66,5.14.29,7.56.18,3.61-.28,7.37-.57,10.64-2.23a2,2,0,0,1,3.08.83,4.58,4.58,0,0,1-.72,3.53c-2.6,5.06-8.13,8.87-14,7.56-5.26-1.09-9.28-5.59-12.27-9.73C234.84,223.16,233.83,221.74,235.15,221.41Zm-18.42-21.33c-3.9-2.29-8.38-3.84-13-3.34-2.43,0-5,1.47-7.3.54-3.25-2.61,1.65-5.52,4-5.67a20.42,20.42,0,0,1,15,2.14,13.26,13.26,0,0,1,3.71,3.15A2.19,2.19,0,0,1,216.73,200.07Zm4.62-48.72c-5.84,2.91-12.69,3.82-18.71,6.53-4.12,1.33-7.61,4.38-11.62,5.59a1.34,1.34,0,0,1-1.76-.53c-.95-8.21,9.26-18,16.7-20.24,5.15-1.39,12.27-1.78,15.87,2.88A4.37,4.37,0,0,1,221.35,151.35Zm11.19,113.7c-.45-3.72-1.95-8.11,0-11.47,2.29-1.93,6-.25,8.59-.31,6.18.37,12-2.39,18.06-3.43a5.07,5.07,0,0,1,5.69,2.31c4.64,5.6,2.59,13.49,1.46,20-1.78,8-5.33,20.76-15.62,19.7C238.56,289.79,234.77,275.42,232.54,265.05Z"/><path class="cls-3" d="M367.82,170.23c1.95-19,2.08-38.84-5.55-56.65a155.36,155.36,0,0,0-7.5-14.48c-22.63-39-61-66.91-107.56-68.41a106.17,106.17,0,0,0-14.35,1.12c-1.5.36-3,.76-4.5,1.19-18.62,4.75-36.58,12-50.77,24.91C162,72,149.58,89.82,140.69,108.71c-.34.67-.65,1.37-1,2.06-5.73,13.32-7.21,27.17-8.19,41.28a188.3,188.3,0,0,0-.11,30.35c.81,14.33,3.92,27.71,7.12,41.55a59,59,0,0,0,2.22,21.31c8.3,30.55,31.65,54.44,57.39,71.34a188.28,188.28,0,0,0,18.51,9.31c1,.4.54,2.06-.45,2.06a.88.88,0,0,1-.4-.09,134.31,134.31,0,0,1-41.75-23.17,54.4,54.4,0,0,0,9.69,16.47c23.17,25,61,32.64,93.16,23.48,7.68-1.72,14.37-5.86,21.42-9.11,2.26-1,4,2.4,1.84,3.65C281,348.74,258.52,352.14,237.23,350c-14.37-2-28.92-4.9-41.55-12.22-8.6-5.19-16.74-12.58-22-21.4-5,7.79.81,17.91,5.42,24.65,19.74,28.18,59.23,32.59,90.75,27.26,15.51-3.13,30.46-9.74,41.72-20.86,6.36-5.66,12.24-12.69,14-21.15a31.64,31.64,0,0,0-.36-15c-1.37,2-2.82,3.81-3.89,5.19-2.31,3-5.19,5.28-7.86,7.86-.74.65-1.34,1.72-2.24,2.1a.58.58,0,0,1-.43-1c5.53-6,10.27-13.07,12.69-20.91a143.8,143.8,0,0,1-25.12,14.1,179.19,179.19,0,0,1-25.25,10.16c-10.48,3.45-20.88,9.36-31.85,10.34-2.8-1.07-.81-3.72,1.43-3.85,12.24-1.57,23.19-7.54,34.76-11.39,1.52-.58,3.07-1.16,4.61-1.7,8-3.49,15.87-7.25,23.46-11.39,13.48-8.13,25.52-18.51,36.31-29.91,11.24-12.71,19.7-28.85,21.09-45.87,0-5.19-2.37-10.14-.54-15.33C365.7,203.44,366.44,186.79,367.82,170.23Zm-11.39,47.88a112.07,112.07,0,0,1-11.19,26.28,92.42,92.42,0,0,1-13.63,18.76c-3.34,8.21-9.27,15.2-15.58,21.29a189.73,189.73,0,0,1-21.31,18.42c-13.09,9.87-27.91,18-44.54,18.06a3.71,3.71,0,0,1-2.37.09c-27.29-4.1-62.36-30.17-75.64-55.51A195.77,195.77,0,0,1,141.94,216a.61.61,0,0,1,0-.72c1.07-.72,2.17,1.61,2.69,2.35,4.14,7,8.89,13.52,13.09,20.44,3,4.9,6.18,9.71,9.36,14.53-4.43-14.24-6.25-29.32-9-43.94-1.61-10.72-2.87-21.56-3.58-32.39a3.1,3.1,0,0,1-.13-1.41s0-.07,0-.11c-.45-7.36-.65-14.73-.51-22.09a190.67,190.67,0,0,1,3.63-31.47c.67-3.29,1.52-6.54,2.51-9.74a.74.74,0,0,1,1.1-.2.6.6,0,0,1,.11.13.59.59,0,0,1,.16.34c0,.94-.07,1.88-.11,2.82-.58,14.06-2.15,28-2.1,42a110.41,110.41,0,0,1,45.71-56.18c10.3-5.71,21.27-12.24,32.88-14.93,0,0,.07,0,.09,0a44.81,44.81,0,0,1,9.63-1.23,38,38,0,0,1,7.74.58c24.58,4,47.1,19.09,62,38.72,9.54,12.54,18.78,26.68,23.19,42a417,417,0,0,0-3.58-50.68c-.09-1.84-.27-3.65.47-5.24a.64.64,0,0,1,1,0h0a.47.47,0,0,1,.09.13.59.59,0,0,0-.11-.13c5.84,12.09,5.44,26.39,6.83,39.55a241.66,241.66,0,0,1-2.1,57c-2.37,15.83-4.61,31.79-8.53,47.3,3-5,5.93-10.14,8.89-15.18,4-7.57,8.66-15,12.54-22.61a.59.59,0,0,1,.67-.45C357.66,215.76,356.5,217.32,356.43,218.11Z"/><path class="cls-4" d="M283,149c3.76,1.29,7.47,2.6,11.17,3.93a61,61,0,0,1,12.15,6c-3.54-8.41-15.72-17.22-24.44-11.41C281.24,148.25,282.39,148.82,283,149Z"/><path class="cls-4" d="M208.43,146c-7.21,1.31-13,6.72-15.8,13.34,7.73-5.41,17.33-7.84,26-11h0C216.91,144.7,211.71,145.5,208.43,146Z"/><path class="cls-5" d="M257.25,225.85a26.62,26.62,0,0,1-17.82-.12c2.65,2.87,6.49,5.06,10.48,5.06C253,230.51,255.42,228.16,257.25,225.85Z"/><path class="cls-6" d="M261.4,271.27c-8.54-1.91-15.34.47-19.67,8.28,2.67,4.78,6.14,8.15,10.42,7.66C258.12,285.83,260.24,277.75,261.4,271.27Z"/><path class="cls-7" d="M393.07,409.56a173.93,173.93,0,0,0-64-74,2.38,2.38,0,0,1-.27-.22c-.34-.25-.67-.51-1-.81a36.75,36.75,0,0,1-4.14,7C313.07,356.44,297.72,366,280.77,371c-1.34,5.24-2.6,10.57-3.74,15.92a378.34,378.34,0,0,0-7.88,57.71c-.43,6.54-.65,13.09-.58,19.65,0,1.12.16,2.93,0,4.5,25.7-1.57,51.24-5.42,75.95-12.71,19-5.84,37.23-13.41,54.08-23.66,1-.54,1.93-1.14,2.89-1.72C399,423.55,396.32,416.43,393.07,409.56Z"/><path class="cls-8" d="M276.72,372.15c-1.7,4-3.31,10.12-4.75,16.54-2.66,12.13-4.66,25.41-5,27.82-1.84,14.75-3.42,29.55-3.27,44.46,0,2.71,0,5.42.25,8.1-10.21.51-20.44.67-30.62.54-.25-6.33-.69-12.65-1.12-19-1.79-20.62-3.13-41.75-7.83-62a157.43,157.43,0,0,0-4.59-16.23A98.24,98.24,0,0,0,236.56,375,115.71,115.71,0,0,0,276.72,372.15Z"/><path class="cls-7" d="M228,469.53h-.38c-37.14-.92-73.42-11.68-106.75-27.73a166.51,166.51,0,0,1-23.59-13.92s0,0-.07,0c.94-1.68,1.14-4.39,2-5.86a163.73,163.73,0,0,1,7.05-16.72c7.57-14.77,18.09-27.85,29.1-40.22a162.32,162.32,0,0,1,34-29.39l.38-.25c.22.54.47,1.07.72,1.59,8.19,17.33,25.92,28.7,44.84,34.25a.6.6,0,0,0,.07.27c1.37,5.1,2.55,10.23,3.6,15.38C224.59,414,226.31,441.7,228,469.53Z"/><path class="cls-9" d="M397.89,428.47l-.06-.16,0-.08,0,.06Z"/><path class="cls-9" d="M250.17,320.92c16.63,0,31.45-8.2,44.54-18.06A188.65,188.65,0,0,0,316,284.42c6.32-6.08,12.25-13.07,15.6-21.28a92.36,92.36,0,0,0,13.62-18.74,112.48,112.48,0,0,0,11.21-26.28c.05-.79,1.23-2.35.16-2.82a.57.57,0,0,0-.67.44c-3.88,7.6-8.52,15-12.55,22.61-3,5-5.89,10.13-8.88,15.18C338.41,238,340.65,222,343,206.22a241.88,241.88,0,0,0,2.1-57c-1.37-13.16-1-27.46-6.81-39.54h0a.64.64,0,0,0-1,0c-.74,1.57-.57,3.39-.48,5.23a417.05,417.05,0,0,1,3.59,50.68c-4.41-15.32-13.66-29.49-23.19-42-15-19.63-37.47-34.72-62.06-38.73-18.21-3.24-35,7.12-50.33,15.61a110.45,110.45,0,0,0-45.7,56.18c0-15,1.75-29.82,2.21-44.85a.75.75,0,0,0-1.37-.27c-4.12,13.27-5.46,27.36-6.12,41.21-.14,7.37.06,14.74.51,22.1l0,.11a3.43,3.43,0,0,0,.13,1.4c.72,10.84,2,21.66,3.6,32.4,2.76,14.61,4.58,29.69,9,43.93-3.17-4.81-6.35-9.61-9.35-14.52-4.21-6.91-9-13.48-13.1-20.43-.51-.75-1.61-3.08-2.68-2.35a.58.58,0,0,0,0,.71,196,196,0,0,0,30.23,49.48c13.26,25.33,48.35,51.41,75.63,55.52A3.94,3.94,0,0,0,250.17,320.92Zm-73.43-58.67c-5.09-9.89-7-21-9.18-32a403.44,403.44,0,0,1-7.85-58.94c2.2-7,4.77-13.82,7.62-20.55,5.91-13.48,15.59-25.81,26.75-35.73,13.75-11.28,41.33-28.15,59.58-25.21,28.53,4.49,52.28,24.5,67.56,48.41,9.62,13.22,16.46,28.64,18.76,45a438.09,438.09,0,0,1-6.14,46.07c-3.11,14.47-4.06,30.37-13.61,42.42-15.18,17-35.06,35.12-57.43,41.83a78.89,78.89,0,0,1-13.41,2.4c-2-.61-4.13-.82-6.13-1.42C217.89,307.26,189,285.9,176.74,262.25Z"/><path class="cls-9" d="M338.31,109.66a.59.59,0,0,1,.11.12l-.09-.13,0,0,0,.05h0Z"/><circle class="cls-9" cx="338.31" cy="109.66" transform="translate(-0.16 218.84) rotate(-35.84)"/><path class="cls-9" d="M329.27,330.83a30.56,30.56,0,0,0,.34-18.73c-.46-1.2-1.07-3.4-2.15-4.55a13.54,13.54,0,0,0,1.92-7.36C342.53,289.83,353.66,277,360.95,262a65.54,65.54,0,0,0,5.73-18.7c1.12-5.76-.72-11.64.17-17.34,4.3-19,5.1-38.53,6.7-57.88,1.19-13.42,1.75-27.05-1.15-40.31-3.56-18.44-14-34.55-25-49.46-18.51-24.64-45.24-43.12-75.48-49.79C260.35,26,245.8,23.42,233.4,26.18h0c-17.5,3.83-34.91,9.55-49.68,19.94C161,62.35,144.23,86.29,133.33,111.77c-5.6,14.38-6.72,29.91-7.66,45.18a181.85,181.85,0,0,0,4.39,53.25c1.33,5.47,2.37,11,3.81,16.46.2,10.09,1.28,20.24,5.14,29.67a111.85,111.85,0,0,0,29.21,43.25,3.77,3.77,0,0,0-.26,1.68,40.07,40.07,0,0,0,3.11,10.23c-3.71,2.27-4.84,8.18-4.69,12.25a49.25,49.25,0,0,0,2,8.08,7.83,7.83,0,0,0-.82.36c-27.76,15.41-56.25,49.7-69.21,78.53-1.71,3.93-3.14,8-4.53,12-.47,1.61-1.69,3.93-.85,5.41-.49,4.4,11.53,10.57,14.89,12.71,34.65,18.8,73.2,31.64,112.74,33.72,60.84,2.36,125.09-4.43,178.28-36.19,1.68-1.28,4.17-2.27,5.88-3.77a2.56,2.56,0,0,0,2.31-1.55c.65-2-.59-4-1.12-6C392.39,388.09,366.47,350.37,329.27,330.83ZM140.75,245.25a58.9,58.9,0,0,1-2.2-21.3c-3.21-13.83-6.31-27.22-7.14-41.55a190.08,190.08,0,0,1,.12-30.35c1-14.1,2.46-28,8.2-41.27,9-19.66,21.75-38.28,37.88-52.88C191.79,45,209.75,37.73,228.36,33c1.5-.42,3-.81,4.52-1.19a106.75,106.75,0,0,1,14.34-1.11c52.16,1.68,94,36.47,115.05,82.88,7.64,17.82,7.51,37.67,5.56,56.67-1.38,16.55-2.13,33.2-5.46,49.51-1.84,5.18.52,10.13.54,15.33-1.4,17-9.85,33.14-21.09,45.86C331,292.33,319,302.71,305.5,310.84c-7.58,4.15-15.45,7.9-23.45,11.4-1.54.55-3.08,1.11-4.61,1.69-11.58,3.86-22.53,9.83-34.77,11.41-2.24.12-4.24,2.77-1.43,3.84,11-1,21.37-6.88,31.84-10.34a178.79,178.79,0,0,0,25.25-10.16,144.65,144.65,0,0,0,25.12-14.1c-2.42,7.84-7.17,14.89-12.68,20.92a.57.57,0,0,0,.41,1c.9-.39,1.5-1.45,2.25-2.11,2.65-2.57,5.55-4.89,7.84-7.86,1.08-1.39,2.53-3.19,3.9-5.19a31.71,31.71,0,0,1,.37,15c-1.77,8.46-7.67,15.48-14,21.16-11.25,11.12-26.21,17.73-41.74,20.85-31.5,5.33-71,.93-90.73-27.25-4.6-6.74-10.41-16.86-5.42-24.65,5.31,8.83,13.46,16.19,22.06,21.4,12.62,7.3,27.17,10.22,41.54,12.22,21.27,2.16,43.74-1.26,62.94-10.79,2.18-1.25.42-4.62-1.83-3.65-7.06,3.24-13.74,7.39-21.42,9.11-32.18,9.15-70,1.53-93.17-23.49a54.29,54.29,0,0,1-9.69-16.45,134.66,134.66,0,0,0,41.74,23.16,1,1,0,0,0,.39.08c1,0,1.48-1.65.45-2.07a189.56,189.56,0,0,1-18.51-9.29C172.4,299.69,149.06,275.8,140.75,245.25Zm86.85,224.27c-37.14-.92-73.42-11.68-106.75-27.75a163.76,163.76,0,0,1-23.59-13.92l-.07,0c.94-1.67,1.14-4.38,2-5.86a164.51,164.51,0,0,1,7.06-16.73c7.56-14.77,18.09-27.84,29.1-40.21a161.87,161.87,0,0,1,34-29.4l.37-.24c7.84,18.22,26.06,30.12,45.55,35.84,0,.09,0,.19.07.28,8.56,32.07,10.63,65,12.62,98Zm36.37-.45c-10.2.51-20.42.66-30.62.54-.23-6.33-.7-12.65-1.11-19-2.29-26.19-3.83-53.22-12.42-78.22A98.42,98.42,0,0,0,236.56,375a116.2,116.2,0,0,0,40.16-2.84c-4.85,11.48-9.22,40.65-9.71,44.35-1.83,14.76-3.44,29.56-3.27,44.47C263.76,463.68,263.72,466.39,264,469.08Zm134.67-36.64c-16.86,10.25-35.09,17.82-54.07,23.64-24.71,7.3-50.25,11.16-76,12.73.12-1.56-.08-3.38,0-4.51-.07-6.54.16-13.1.59-19.64A385.86,385.86,0,0,1,280.77,371c17-5.09,32.31-14.61,42.89-29.48a37.17,37.17,0,0,0,4.15-7c.44.35.89.68,1.29,1a173.9,173.9,0,0,1,64,73.95c3.26,6.87,5.9,14,8.46,21.16C400.57,431.3,399.63,431.9,398.65,432.45Z"/><path class="cls-9" d="M215.48,193.75a20.42,20.42,0,0,0-15-2.14c-2.4.14-7.3,3.06-4,5.67,2.34.92,4.88-.58,7.3-.54,4.63-.5,9.11,1.06,13,3.34a2.19,2.19,0,0,0,2.46-3.17A13.26,13.26,0,0,0,215.48,193.75Z"/><path class="cls-9" d="M296.45,190.58A23.17,23.17,0,0,0,282,194.65c-1.43.94-4.06,2.25-2.64,4.28s3.32-.31,4.88-1a19.7,19.7,0,0,1,16.37-1.06A2.35,2.35,0,0,0,303,193,12.72,12.72,0,0,0,296.45,190.58Z"/><path class="cls-9" d="M206,142.7c-7.44,2.26-17.65,12-16.7,20.24a1.34,1.34,0,0,0,1.76.53c4-1.22,7.5-4.26,11.62-5.59,6-2.71,12.87-3.63,18.71-6.53a4.37,4.37,0,0,0,.47-5.77C218.22,140.92,211.1,141.32,206,142.7Zm12.64,5.66c-8.63,3.12-18.23,5.55-26,11,2.77-6.62,8.58-12,15.8-13.34,3.28-.49,8.49-1.28,10.16,2.37Z"/><path class="cls-9" d="M288,154.74c6,1.72,12.09,3.73,17.45,7.08a3.66,3.66,0,0,0,2,.92,1.49,1.49,0,0,0,2.07-2.07.64.64,0,0,0,0-.09C307,151.88,300,144.07,291,142c-5.24-1.81-17.46,2-11.93,8.9C281.49,153.25,284.92,153.76,288,154.74Zm-6.15-7.2c8.72-5.81,20.9,3,24.44,11.41a61,61,0,0,0-12.15-6c-3.71-1.33-7.42-2.64-11.17-3.93C282.39,148.82,281.24,148.25,281.86,147.54Z"/><path class="cls-9" d="M247.73,233.46c5.84,1.31,11.36-2.5,14-7.56a4.58,4.58,0,0,0,.72-3.53,2,2,0,0,0-3.08-.83c-3.27,1.66-7,1.95-10.64,2.23-2.42.1-5.11.48-7.56-.18-1.91-.72-3.82-2.07-6-2.17-1.33.34-.31,1.75.31,2.32C238.46,227.86,242.48,232.36,247.73,233.46Zm9.52-7.61c-1.84,2.32-4.25,4.67-7.34,4.93-4,0-7.83-2.19-10.48-5.06A26.62,26.62,0,0,0,257.25,225.85Z"/><path class="cls-9" d="M266.32,272.15c1.13-6.52,3.18-14.41-1.46-20a5.07,5.07,0,0,0-5.69-2.31c-6,1-11.87,3.8-18.06,3.43-2.58.06-6.3-1.61-8.59.31-1.93,3.36-.43,7.75,0,11.47,2.23,10.37,6,24.74,18.15,26.8C261,292.91,264.54,280.11,266.32,272.15Zm-26.18,4.2a65.56,65.56,0,0,1-5-20.33c2.84,0,5.68.93,8.53,1a42.83,42.83,0,0,0,9.62-1.74c2.77-.48,5.83-3.36,8.57-2,2.46,3.88.73,8.87.36,13.34-.15.9-.32,1.92-.5,3-.94-.28-2-.41-2.86-.65a16.16,16.16,0,0,0-12.62,1.86A15.23,15.23,0,0,0,240.14,276.35Zm1.59,3.19c4.33-7.81,11.13-10.18,19.67-8.28-1.16,6.48-3.27,14.57-9.25,15.94C247.87,287.69,244.39,284.32,241.73,279.54Z"/><path class="cls-10" d="M215.39,371.48c1.37,5.1,2.55,10.23,3.6,15.38-35.55-12.92-46.16-41.72-48.51-49.89,8.19,17.33,25.92,28.7,44.84,34.25A.6.6,0,0,0,215.39,371.48Z"/><path class="cls-11" d="M276.72,372.15c-1.7,4-3.31,10.12-4.75,16.54a77.73,77.73,0,0,1-39.37,2c-2.87-.6-5.57-1.28-8.19-2.06a157.43,157.43,0,0,0-4.59-16.23A98.24,98.24,0,0,0,236.56,375,115.71,115.71,0,0,0,276.72,372.15Z"/><path class="cls-12" d="M328.83,335.38c-.65,12.8-21.33,40-51.8,51.57,1.14-5.35,2.4-10.68,3.74-15.92,16.94-5.08,32.3-14.59,42.89-29.46a36.75,36.75,0,0,0,4.14-7C328.16,334.86,328.49,335.13,328.83,335.38Z"/><path class="cls-13" d="M362.36,219.74c-1.84,5.19.51,10.14.54,15.33-1.39,17-9.85,33.15-21.09,45.87C331,292.33,319,302.72,305.51,310.84,297.92,315,290,318.75,282,322.24c-1.54.54-3.09,1.12-4.61,1.7-11.57,3.85-22.52,9.83-34.76,11.39-2.24.13-4.23,2.78-1.43,3.85,11-1,21.38-6.89,31.85-10.34a179.19,179.19,0,0,0,25.25-10.16,143.8,143.8,0,0,0,25.12-14.1c-2.42,7.83-7.16,14.89-12.69,20.91a.58.58,0,0,0,.43,1c.9-.38,1.5-1.45,2.24-2.1,2.66-2.57,5.55-4.9,7.86-7.86,1.07-1.39,2.53-3.2,3.89-5.19a31.64,31.64,0,0,1,.36,15c-1.77,8.46-7.66,15.49-14,21.15-11.26,11.13-26.21,17.73-41.72,20.86-31.52,5.33-71,.92-90.75-27.26-4.61-6.74-10.41-16.86-5.42-24.65,5.31,8.82,13.45,16.21,22,21.4,12.62,7.32,27.17,10.23,41.55,12.22,21.29,2.15,43.74-1.25,62.94-10.79,2.17-1.25.43-4.61-1.84-3.65-7.05,3.25-13.74,7.39-21.42,9.11-32.17,9.16-70,1.52-93.16-23.48a54.4,54.4,0,0,1-9.69-16.47,134.31,134.31,0,0,0,41.75,23.17.88.88,0,0,0,.4.09c1,0,1.48-1.66.45-2.06a188.28,188.28,0,0,1-18.51-9.31c-25.74-16.9-49.09-40.78-57.39-71.34a59,59,0,0,1-2.22-21.31c-3.2-13.83-6.31-27.22-7.12-41.55a188.3,188.3,0,0,1,.11-30.35c1-14.1,2.46-28,8.19-41.28.31-.69.63-1.39,1-2.06a279.45,279.45,0,0,0-3.87,30.22c-.72,9.69-.94,19.59,1.7,28.92a49.65,49.65,0,0,0,6.16,13.48c4.41-5.64,4.61-13.39,5.08-20.55a161.21,161.21,0,0,1,7.75-39.58,190.67,190.67,0,0,0-3.63,31.47c-.13,7.36.07,14.73.51,22.09,0,0,0,.07,0,.11a3.1,3.1,0,0,0,.13,1.41c.72,10.83,2,21.67,3.58,32.39,2.78,14.62,4.59,29.7,9,43.94-3.18-4.81-6.36-9.63-9.36-14.53-4.21-6.92-9-13.48-13.09-20.44-.51-.74-1.61-3.07-2.69-2.35a.61.61,0,0,0,0,.72,195.77,195.77,0,0,0,30.22,49.47c13.27,25.34,48.35,51.42,75.64,55.51a3.71,3.71,0,0,0,2.37-.09c16.63,0,31.45-8.19,44.54-18.06A189.73,189.73,0,0,0,316,284.43c6.31-6.09,12.24-13.07,15.58-21.29a92.42,92.42,0,0,0,13.63-18.76,112.07,112.07,0,0,0,11.19-26.28c.07-.78,1.23-2.35.16-2.82a.59.59,0,0,0-.67.45c-3.87,7.59-8.51,15-12.54,22.61-3,5-5.89,10.14-8.89,15.18,3.92-15.51,6.16-31.47,8.53-47.3a241.66,241.66,0,0,0,2.1-57c-1.39-13.16-1-27.47-6.83-39.55a.64.64,0,0,0-1,0c-.74,1.59-.56,3.4-.47,5.24a417,417,0,0,1,3.58,50.68c-4.41-15.33-13.65-29.48-23.19-42-15-19.63-37.47-34.74-62-38.72a38,38,0,0,0-7.74-.58c.74-.09,1.5-.13,2.24-.18A64.34,64.34,0,0,1,268,85.17c12.47,2.87,22.65,6.33,32.84,14.1s19,17.15,28.7,25.5c.76.65,1.79,1.32,2.66.87a2.45,2.45,0,0,0,1-1.66c2.19-8.46-1-17.3-4.12-25.45q-2.85-7.39-5.66-14.75c4.3,2,7.19,6.16,9.74,10.21a208.68,208.68,0,0,1,19.54,39.91c.85,2.37,2.64,5.28,5,4.57a127.29,127.29,0,0,0-3-39.37,155.36,155.36,0,0,1,7.5,14.48c7.63,17.82,7.5,37.67,5.55,56.65C366.44,186.79,365.7,203.44,362.36,219.74Z"/><path class="cls-13" d="M159.16,156.59c0-14,1.52-28,2.1-42,0,3.76.09,7.54.13,11.3,0,2,.43,4.52,2.35,5s3.34-1.23,4.43-2.71a112.23,112.23,0,0,1,69.57-42.69c-11.62,2.69-22.59,9.22-32.88,14.93A110.41,110.41,0,0,0,159.16,156.59Z"/></svg>