<svg id="Layer_1" data-name="Layer 1" xmlns="http://www.w3.org/2000/svg" viewBox="0 0 500 500"><defs><style>.cls-1{fill:#f58c75;}.cls-2{fill:#fcc3a2;}.cls-3{fill:#786060;}.cls-4{fill:#8db9db;}.cls-5{fill:#fff;}.cls-6{fill:#420f2a;}.cls-7{fill:#6397cb;}.cls-8{fill:#574e4f;}</style></defs><title>male03</title><path class="cls-1" d="M138.9,223.4l-.44-.43a23.57,23.57,0,0,0,4.8,16C143.72,234,144.94,228.2,138.9,223.4Z"/><path class="cls-2" d="M251,320.75a2.93,2.93,0,0,1,.58.14c1.43-.1,3-.19,4.09-.16,1.62,0,3.24-.13,4.86-.26l1.23-.27c24.42-4.33,46.4-19.33,60.9-39,10-14.93,14.61-32.42,19.89-49.37,1.39-3.54,2-7.94,4.63-10.73,2.54-.33,1.12,4.26,1,5.66-1.65,6.92-3.37,14-5.4,21a19.24,19.24,0,0,1,7.56-5.16c1.55-2.49,1.59-5.8,1.94-8.69a27.46,27.46,0,0,1,4.62-11.08c1.51-1.84,4.24-8.56,7.15-6.47a1.68,1.68,0,0,1,.26,2l-.5.58c1.46,7.22-2.14,13.53-6.85,18.73,0,.06,0,.11,0,.16-.57,3.84-2.62,7.69-6.38,9.2a4.81,4.81,0,0,1-1.2.35c-2.41,1.72-4.91,3.3-7.31,5a1.09,1.09,0,0,1-.7.15q-1.29,4.09-2.77,8.11c12.34,1.09,21-5.95,26.28-17,9.53-16.88,11.85-56.71-14.44-27.55-2.75,3.26-5,1.09-3.05-2.33.08-.15.18-.29.26-.44a2.17,2.17,0,0,1-.28-.53c-5.16-15.53-7.76-32-5.77-48.37-2.72-6.32-6.09-13.41-5.4-20.45a17.68,17.68,0,0,0-3.31,1.05,53.75,53.75,0,0,1-19.53,3.4c-4.33-.42-18.19.36-17.51-6.12,1.07-2.4,4.15-3,6.16-4.49a93.14,93.14,0,0,0,15.66-11.49,80.51,80.51,0,0,1-22.16,7.06c-3,.26-6.41,1.79-9.16.23a2.44,2.44,0,0,1-.16-3.57c3.1-2.42,6.49-4.24,9.51-6.72a42.84,42.84,0,0,0,5.19-4.23,75.41,75.41,0,0,1-19,4.23c-4.67,2.37-8.29,6.5-13.29,8.37-8.7,3.72-18.37,4.22-27.71,4-2.1.05-4.5-1.23-4.33-3.62.41-3.46,4.07-5.33,6.35-7.59,1.5-1.29,2.93-2.66,4.33-4.06a148.86,148.86,0,0,1-18.87,3.5c-8.45,9.28-17.12,18.81-28.66,24.32-6.91,3.42-14.45,5.22-21.77,7.53-2.34.94-5.8-.23-5.16-3.21.72-2.79,2.23-5.35,3.18-8.08a98,98,0,0,1-16.28,13.92c-.41.27-.87.65-1.36,1,.05.28.1.57.14.84a109.51,109.51,0,0,1,.9,23.15c-.47,8.92-2.41,17.63-3.93,26.4-.66,1.95-.1,5.91-1.91,7.13.59,1.84.3,3.25-1.39,3.75-1.89.13-2.9-2-3.79-3.31-15.77-22.94-23.72-6.43-17.54,13.15,3.86,15.17,14.17,36,32.55,32.49-1.23-3.14-2.4-6.3-3.54-9.47-2.78-.45-5-2.25-7.44-3.54l-.17-.11a8.64,8.64,0,0,1-2.58-.26c-5.59-1.84-6.56-5-6.48-8.64a28.09,28.09,0,0,1-5.76-19.11c-.22-.21-.44-.41-.65-.64a1.7,1.7,0,0,1,2.16-2.57c6.13,4.13,12.52,12,7.71,19.38-1.93,4.55,2.68,7.78,6.73,8.2l.14.06a9.61,9.61,0,0,1,4.48,1.94c-2.64-7.68-5.82-15.46-6.25-23.57A1.78,1.78,0,0,1,154,223.1c3,2.21,3.16,7.22,4.58,10.52,7.33,21.79,13.78,46.06,31.63,61.69a115.17,115.17,0,0,0,34.43,20.09A102.9,102.9,0,0,0,251,320.75Zm35.83-171c4.64-2,9.59.81,13.32,3.51,2.49,1.4,13.75,12.13,8.8,14.17a1.93,1.93,0,0,1-2.12.22c-4.75-1.62-10-1.84-14.79-3.58-3-1-6.34-2.1-8.24-4.79C281.72,156,283.53,151.4,286.85,149.74Zm-3.07,42.78c3.94-4.69,11.39-2,13.44,3.21,2.13,4.88.92,13.65-4.58,15.71-3.22,1.23-6.45-1-8.1-3.69-1.2-2.05-.76-4.55-1.09-6.82C283.2,198.21,282,194.91,283.77,192.51Zm-48.44,44c1.29-.49,2.63.26,3.92.46a50.72,50.72,0,0,0,15.58.74c3.75-.42,6.83-2.15,10.39-2.61a1.76,1.76,0,0,1,1.09,2.7h0a2.37,2.37,0,0,1-.63.61c-2.61,6-8.31,10.38-14.95,10.31-6.29.16-11.63-4.89-15.18-9.56C234.62,238.62,234.21,237.09,235.33,236.52Zm.55,32.46c7.28,1,14.37.59,21.59,0,6.75-1.3,13.11-3,19.13-6.19a58,58,0,0,0,5.74-3.25c-2-1.3-3.29-2.75-1.37-4.26,3.46-1.07,6.67,2.51,8.67,4.86.36.5.9.81,1.11,1.41a1.35,1.35,0,0,1-1.69,1.7,9.38,9.38,0,0,0-2-1.24,2.11,2.11,0,0,1-.74.82c-3,1.63-6.56,3.05-9.49,4.41-10.81,4.11-22.6,6.53-34.18,6-3.27-.21-6.72-.24-9.8-1.36C230.3,269.57,233.29,267,235.88,269Zm-42.7-101.57c-4.95-2,6.31-12.77,8.8-14.17,3.73-2.7,8.68-5.53,13.32-3.51,3.32,1.66,5.12,6.27,3,9.52-1.91,2.69-5.26,3.75-8.24,4.79-4.77,1.74-10,2-14.79,3.58A1.93,1.93,0,0,1,193.18,167.41Zm25.53,33.51c-.33,2.26.11,4.77-1.09,6.82-1.65,2.66-4.88,4.92-8.1,3.69-5.51-2.05-6.72-10.83-4.58-15.71,2.06-5.2,9.5-7.9,13.45-3.21C220.13,194.91,219,198.21,218.71,200.92Z"/><path class="cls-1" d="M362.67,220.23a36.67,36.67,0,0,0-5.23,7.07,10.51,10.51,0,0,0-1.26,5.05,21.7,21.7,0,0,0,.65,3C360.14,230.81,363.37,225.83,362.67,220.23Z"/><path class="cls-2" d="M210.58,369c3.79,2.33,6.87,6,11.1,7.55,22.77,10.37,50.69,6.19,70.46-8.62-.58-6.81-1.22-13.62-1.94-20.52a84.61,84.61,0,0,1-.39-9.06,9.21,9.21,0,0,1,.12-1.53c-2.23-1.48-.6-5.79-.57-8.07.44-2.55,1-5.11,1.64-7.64-13.5,12.85-30.2,23.54-49.46,22.1-9.06-.44-16.92-5.51-23.15-11.79a64,64,0,0,1-6.81-6.59c.14,1,.26,2.06.36,3.07-.11,2,1.1,6.94-.37,8.8.37,8-.36,16.13-.63,24.18Q210.76,365,210.58,369Z"/><path class="cls-1" d="M250.38,246.83c5.18.11,9.68-3.44,12.56-7.39a40.66,40.66,0,0,1-22.61,1.43C242.81,244,246.28,246.69,250.38,246.83Z"/><path class="cls-3" d="M213.27,153.46c-6.51-1.25-13.55,5.81-17.19,10.55C199.55,162.87,221.59,159.33,213.27,153.46Z"/><path class="cls-3" d="M306.08,164c-3.65-4.74-10.68-11.8-17.19-10.55C280.56,159.33,302.61,162.87,306.08,164Z"/><path class="cls-3" d="M371.53,160.08c-1.29,6-2.54,12.05-3.92,18.07-1.5,6.69-3.16,13.37-5.11,20a11.2,11.2,0,0,0-.78,3.58c-.74.17-1.53.38-2.33.64a28.35,28.35,0,0,0-8.75,6.69c-1.4-5-2.82-10.08-3.86-15.21a83.09,83.09,0,0,1-.64-30.95c-2.16-6.69-6.33-13.07-5.72-20.4,0-1.06.11-2.54-1-3.11-2-1.78-6.35,1.4-8.9,1.78a56.08,56.08,0,0,1-29.4,1.67c8.69-4.43,17.82-9.36,23.6-17.45,1.38-2.05-.49-5-2.9-3.77-2.65,3.16-6.74,4.32-10.49,5.87a58.12,58.12,0,0,1-18.56,3.33c4.3-2.77,8.6-5.61,12.16-9.36.89-.93,5.36-5.59,6.95-8.79,2.58-2.29,4.51-4.94,2-6.1a2.22,2.22,0,0,0-1.21.34c-3,2.22-5.78,4.6-9.19,6.25-6.59,3.35-14.32,4-21.35,5.89-10.93,8.52-25.08,11.9-38.93,11.63a120.73,120.73,0,0,0,12.05-12.14,1.89,1.89,0,0,0,.32-.66c.34-.34.68-.7,1-1.06a33.29,33.29,0,0,0,6.57-4.47,17.32,17.32,0,0,0,3.81-4.43.78.78,0,0,0-.11-1,.74.74,0,0,0-.93-.11c-3.86,1.82-7.48,4.19-11.46,5.83-8,3.18-16.48,4.41-24.83,6.23a4.42,4.42,0,0,0-3.86,2.73c-11.57,15.68-30.25,24.3-48.62,29.53,2-5.68,4.55-11.16,6.55-16.84.44-1.19,1.25-2.61.34-3.79-1.19-1.5-3.16-.51-3.94.89a78.44,78.44,0,0,1-6.5,8.49,111.06,111.06,0,0,1-14.38,13.6c-.87,1-2.8,1.86-4.13,3a2.74,2.74,0,0,0-1.5,2.8,124,124,0,0,1-1,43c-.47,3.35-1.17,6.63-1.8,10a42.56,42.56,0,0,0-8.3-8.45,15.55,15.55,0,0,0-2.25-1.44,20.37,20.37,0,0,1-1.36-3.18c-1.63-5.36-3-11.16-4.19-16.69-1.25-5.72-1.86-11.54-2.69-17.33-.51-4-3.52-5.47-6.74-2.88,1-6.55,1.59-13.18,2.84-19.7,3.66-12.07,9.26-23.81,15.38-34.87,17.33-29.38,43.21-57.26,78.08-63.85a101.61,101.61,0,0,1,34.89-1.19,2.35,2.35,0,0,0,1.65.19c2.16.32,4.41,1.17,6.42.21,2.8-3.16-1.59-4.68-7.2-5.47-2.5-2.27-5.11-4.41-7.41-6.91,26.08,4.32,53.78,13.37,72.45,33.09A94.08,94.08,0,0,1,337.34,87c.53,1.29,1.29,3,2.86,3.09a5.86,5.86,0,0,0,.64-.06c.8.4,1.72.68,2.52,1.08C371.57,102,377.82,133.18,371.53,160.08Z"/><path class="cls-1" d="M293.31,314.2c-8.74,5.16-18.13,9-27.56,10.52a52.77,52.77,0,0,1-13.87,1.08,2.65,2.65,0,0,1-1.59.26,114.06,114.06,0,0,1-41.11-11.68c.14.38.26.77.39,1.16a9.77,9.77,0,0,1,1,1.43c4.46,6,7.12,13.48,13.44,17.86,21.21,15.93,47,1.53,63.67-14.17,1.75-1.57,3.42-3.24,5.07-4.92C292.9,315.23,293.09,314.71,293.31,314.2Z"/><path class="cls-4" d="M332.56,437c2.2-4.48,4.36-9.51,3.4-14.6-5.32-16.37-15.67-30.85-25.7-44.57-3.52-4.57-6.59-9.49-10-14-1.38-4.69,13.87,10.63,14.24,11.77,4.5,5.81,8.84,11.84,12.82,18.08.41-.37.81-.72,1.12-1.06a67.66,67.66,0,0,0,10.59-14c3.4-5.5-1-11.45-4-15.81a186.53,186.53,0,0,0-21.38-25C308.14,332.07,301.8,327.3,296,322c-.7,2.42-1.3,4.86-1.76,7.22-.63,1.67-.39,5-1.39,6.77,1.79,2.48,2,10.08,2.44,11.77,2.24,20.06,3.11,40.08,4.13,60.19q.87,23.16.65,46.33c-.38,1.89.24,10.09-.61,15,4.66-.27,9.33-.61,14-1.06a12.42,12.42,0,0,1,.79-1.22c1.68-2.47,3.09-4.82,4.71-7.29C323.68,452.23,328.49,444.81,332.56,437Z"/><path class="cls-4" d="M396.06,437.71c-1.42,1-2.75,2.77-4.09,3.5-17.39,13.68-37.92,20.7-59.31,24.4q-6.93,1.21-13.92,2a7.06,7.06,0,0,1,.89-1.23c4.7-6.88,9.49-13.77,13.94-20.84,3.05-5.13,6.35-10.89,7.41-16.88a19.79,19.79,0,0,0-.25-8.62,123.06,123.06,0,0,0-7.5-16.4c-1.1-2-2.25-4.07-3.45-6.06,3.56-3.47,7.24-6.84,10.23-10.82,5.63-7.24,7.75-15.19,1.84-23-1.42-2.22-2.92-4.36-4.47-6.48,8.66,7.24,17.33,14.53,25,22.88.59.61,1.17,1.25,1.72,1.89,8.83,10,16.31,21.73,22.81,33.45,3.43,7.1,6.78,14.07,9,21.69A4.2,4.2,0,0,0,396.06,437.71Z"/><path class="cls-5" d="M292.59,373.46a71,71,0,0,1-9.8,5.8c-10.19,4.64-21.16,8.12-32.45,8.14-13.47-.19-27.7-3.16-38.25-12a15.57,15.57,0,0,1-1.71-1.61c-1,22.59-1.83,45.2-1.64,67.82,0,6.43,0,12.86.16,19.28a10.49,10.49,0,0,1-.09,2.79c0,1,0,2-.1,2.93a3.73,3.73,0,0,1,0,1.28c22.75,1.61,45.59,2.41,68.34,2.22,5.84-.17,11.77-.35,17.73-.64-.1-1.28,0-2.62,0-3.86.3-6.49.37-13,.41-19.48.15-17.9-.17-35.82-1.31-53.68C293.51,386,293.08,379.73,292.59,373.46Z"/><path class="cls-4" d="M185.82,466l-1.27-.13c-4.41-.57-8.83-1.23-13.26-2-15-2.56-29.91-6.42-43.79-12.82-8.75-3.83-16.27-9.66-23.53-15.78v0a34.87,34.87,0,0,1,.47-4.11c3.45-19.21,17.62-38.07,34.08-54.33a312.44,312.44,0,0,1,27.92-24.25c-2.35,3-4.64,6-6.78,9.17-10,12.43,3.14,26.06,13.47,33.15-1.19,1.69-2.33,3.41-3.41,5.17a61.25,61.25,0,0,0-6.8,14.83.08.08,0,0,0,0,.06,41.26,41.26,0,0,0-1.76,12C163.58,442.15,175.29,454.72,185.82,466Z"/><path class="cls-4" d="M207.4,349.88c.53-4.22.54-8.69,1.61-12.83a2.06,2.06,0,0,1-.79-1.3,129.7,129.7,0,0,0-2.7-16.06c-2.51,2-5.06,4.13-7.34,6.17-12.39,11.58-24.71,23.94-34.17,38-8.15,8.78,1.36,18.36,8.06,24.42.85,1,2.57,1.88,3.66,3,2.71-3.6,5.55-7.06,8.32-10.38a216.21,216.21,0,0,1,15.1-16.33c.56-.46,1.07-1.19,1.85-1.18.74.17.53,1,.18,1.43-4.72,6.84-9.73,13.5-14.74,20.12-30.88,40.39-24.33,44.77,4.55,81.55q6.49.58,13,1.07a82.69,82.69,0,0,1,0-11.87c.08-.91.14-1.82.19-2.73-.29-9.76-.32-19.53-.2-29.29C204.29,399,205.51,374.41,207.4,349.88Z"/><path class="cls-6" d="M393.27,416.66c-14.88-31-39.21-53.41-66.15-73.86-1.35-.95-2.74-2.33-4.37-2.77q-3.14-3.25-6.4-6.38a154.09,154.09,0,0,0-18-15,6.63,6.63,0,0,0-1.08-.78c.69-2,1.43-3.91,2.28-5.74.36-1,.94-1.92,1.43-2.9a128.4,128.4,0,0,0,20-17.5c7-7.95,12.06-17.18,16-27,2.31.34,5,.26,6.29.5,10.92.48,19.78-7.33,24.43-16.63,6.67-10.51,15.87-46.19-1.25-47.36.39-1.17.62-2.51,1-3.45q2.85-10.13,5.27-20.37c2.44-10.88,5.41-21.79,5.81-33,.95-24.6-9.6-50.46-34.76-58.27a4.18,4.18,0,0,0-1.44-.3c-2.08-8.5-16.79-27.13-19.46-29.21a71,71,0,0,0-10.53-8.36,150.07,150.07,0,0,0-36.46-17.15A176.58,176.58,0,0,0,256.3,26.5c-3.9-.5-8.27-2.5-12.07-.88-4.34,3,4.3,8.32,6.91,11.41-3.95-.22-7.48-.23-8.69-.29-27.92-.3-54.85,11.49-74.62,31-17,17.45-31.75,38.2-39.92,61.3-1.86,8.28-4.44,16.38-6,24.73-.92,4.94-3.32,14.37,5.15,11.63,1.36,12.11,3.19,24.75,8.82,35.67-5.24-.59-10.18,3.32-11.19,8.74-2.78,13,2.46,26.29,7.31,38.16,4.3,9.39,12.31,18.15,22.81,20.13a12.66,12.66,0,0,0,5.69-.17l-.16,0a32,32,0,0,0,4.48-1.32,107.72,107.72,0,0,0,9.59,18.52,91.53,91.53,0,0,0,27.89,25.45,43,43,0,0,1,2,5l-.66.42a91.21,91.21,0,0,0-7.67,6,269.65,269.65,0,0,0-20.86,20.38l-.17.1c-27.37,15.53-59,45.79-71.64,74.83a69.61,69.61,0,0,0-3.43,11.92c-.51,2.34-.95,5,.61,7a1.69,1.69,0,0,0,.49.45,9.24,9.24,0,0,0,2.47,3.58C140.77,475.59,214,472.79,262.88,475c44.91-.16,103.11-1,137-34.46a2.4,2.4,0,0,0,.41-2.11C402.35,434.69,394.31,419.27,393.27,416.66Zm-258.5-234.2c-1.25-5.71-1.85-11.54-2.68-17.31-.51-4-3.51-5.47-6.74-2.88,1-6.56,1.59-13.19,2.83-19.72,3.68-12.08,9.26-23.8,15.38-34.86,17.33-29.39,43.21-57.25,78.09-63.85a101.71,101.71,0,0,1,34.89-1.18,2.27,2.27,0,0,0,1.66.18c2.15.33,4.4,1.18,6.42.22,2.78-3.16-1.59-4.7-7.2-5.47-2.51-2.26-5.11-4.42-7.41-6.91,26.07,4.33,53.78,13.37,72.43,33.08A94.23,94.23,0,0,1,337.35,87c.53,1.28,1.27,2.95,2.85,3.09a3.47,3.47,0,0,0,.62-.08c.81.42,1.72.69,2.53,1.09,28.21,10.92,34.47,42.07,28.17,69-2.72,12.74-5.31,25.53-9,38a11.09,11.09,0,0,0-.79,3.58c-.74.17-1.51.38-2.32.64a28.13,28.13,0,0,0-8.76,6.7c-1.39-5-2.8-10.09-3.84-15.22a82.85,82.85,0,0,1-.64-30.95c-2.16-6.7-6.32-13.06-5.71-20.4,0-1.05.1-2.54-1-3.1-2-1.79-6.35,1.38-8.89,1.77a56.19,56.19,0,0,1-29.39,1.68c8.68-4.43,17.8-9.38,23.59-17.46,1.37-2-.49-5-2.9-3.76-2.64,3.15-6.73,4.32-10.48,5.86a57.86,57.86,0,0,1-18.57,3.34c4.3-2.78,8.62-5.63,12.17-9.37.88-.93,5.35-5.6,6.95-8.78,2.59-2.3,4.51-4.94,2-6.1a2.08,2.08,0,0,0-1.2.33c-3,2.22-5.8,4.61-9.2,6.24-6.58,3.35-14.31,4-21.35,5.9-10.93,8.52-25.07,11.91-38.92,11.63a122.1,122.1,0,0,0,12-12.13,2,2,0,0,0,.33-.65c.34-.35.67-.7,1-1.06a33.22,33.22,0,0,0,6.58-4.48,17.39,17.39,0,0,0,3.8-4.42.76.76,0,0,0-.09-1,.77.77,0,0,0-.93-.11c-3.87,1.83-7.49,4.19-11.46,5.82-8,3.18-16.49,4.4-24.84,6.22a4.43,4.43,0,0,0-3.84,2.75c-11.56,15.68-30.26,24.29-48.62,29.52,2-5.67,4.55-11.15,6.56-16.82.44-1.19,1.23-2.62.32-3.8-1.19-1.51-3.15-.51-3.93.89a81.24,81.24,0,0,1-6.49,8.5,111.44,111.44,0,0,1-14.39,13.6c-.88,1-2.8,1.87-4.14,3a2.74,2.74,0,0,0-1.5,2.8,124.09,124.09,0,0,1-.94,43c-.47,3.34-1.17,6.64-1.8,10-3-4.12-7.69-8.45-10.55-9.89a20,20,0,0,1-1.37-3.17C137.33,193.8,135.94,188,134.76,182.46ZM190.23,295.3c-17.85-15.62-24.3-39.89-31.63-61.69-1.42-3.3-1.59-8.31-4.58-10.52a1.78,1.78,0,0,0-2.32,1.61c.44,8.11,3.61,15.89,6.25,23.57a9.61,9.61,0,0,0-4.48-1.94l-.14-.06c-4.05-.42-8.66-3.66-6.73-8.2,4.81-7.4-1.57-15.25-7.71-19.38a1.7,1.7,0,0,0-2.16,2.57c.21.22.43.42.65.64A28.09,28.09,0,0,0,143.13,241c-.09,3.68.89,6.8,6.48,8.64a8.64,8.64,0,0,0,2.58.26l.17.11c2.44,1.29,4.66,3.09,7.44,3.54,1.14,3.17,2.31,6.33,3.54,9.47-18.38,3.5-28.69-17.32-32.55-32.49-6.18-19.58,1.77-36.09,17.54-13.15.89,1.32,1.9,3.44,3.79,3.31,1.7-.5,2-1.92,1.39-3.75,1.8-1.22,1.25-5.18,1.91-7.13,1.52-8.77,3.46-17.49,3.93-26.4a109.51,109.51,0,0,0-.9-23.15c0-.27-.09-.56-.14-.84.48-.37.94-.75,1.36-1a98,98,0,0,0,16.28-13.92c-.94,2.73-2.46,5.29-3.18,8.08-.64,3,2.82,4.15,5.16,3.21,7.32-2.3,14.86-4.11,21.77-7.53,11.55-5.52,20.22-15,28.66-24.32a148.86,148.86,0,0,0,18.87-3.5c-1.4,1.4-2.82,2.77-4.33,4.06-2.27,2.26-5.94,4.13-6.35,7.59-.17,2.39,2.23,3.67,4.33,3.62,9.34.2,19-.3,27.71-4,5-1.88,8.62-6,13.29-8.37a75.41,75.41,0,0,0,19-4.23,42.84,42.84,0,0,1-5.19,4.23c-3,2.48-6.4,4.3-9.51,6.72a2.44,2.44,0,0,0,.16,3.57c2.75,1.55,6.21,0,9.16-.23a80.51,80.51,0,0,0,22.16-7.06A93.14,93.14,0,0,1,302,137.78c-2,1.46-5.08,2.09-6.16,4.49-.68,6.48,13.17,5.7,17.51,6.12a53.75,53.75,0,0,0,19.53-3.4,17.68,17.68,0,0,1,3.31-1.05c-.69,7,2.68,14.12,5.4,20.45-2,16.33.6,32.84,5.77,48.37a2.17,2.17,0,0,0,.28.53c-.08.15-.18.29-.26.44-2,3.42.3,5.59,3.05,2.33,26.29-29.16,24,10.67,14.44,27.55-5.3,11-13.94,18.08-26.28,17q1.49-4,2.77-8.11a1.09,1.09,0,0,0,.7-.15c2.4-1.7,4.9-3.28,7.31-5a4.81,4.81,0,0,0,1.2-.35c3.75-1.51,5.81-5.36,6.38-9.2,0-.05,0-.11,0-.16,4.71-5.2,8.31-11.52,6.85-18.73l.5-.58a1.68,1.68,0,0,0-.26-2c-2.91-2.09-5.64,4.62-7.15,6.47a27.46,27.46,0,0,0-4.62,11.08c-.35,2.88-.39,6.2-1.94,8.69a19.24,19.24,0,0,0-7.56,5.16c2-7,3.75-14.09,5.4-21,.12-1.4,1.53-6-1-5.66-2.66,2.79-3.24,7.19-4.63,10.73-5.27,17-9.87,34.45-19.89,49.37-14.5,19.69-36.48,34.69-60.9,39l-1.23.27c-1.62.13-3.24.25-4.86.26-1.13,0-2.66.06-4.09.16a2.93,2.93,0,0,0-.58-.14,102.9,102.9,0,0,1-26.35-5.36A115.17,115.17,0,0,1,190.23,295.3Zm-47-56.3a23.57,23.57,0,0,1-4.8-16l.44.43C144.94,228.2,143.72,234,143.26,239Zm212.92-6.65a10.51,10.51,0,0,1,1.26-5.05,36.67,36.67,0,0,1,5.23-7.07c.7,5.6-2.53,10.57-5.85,15.11A21.7,21.7,0,0,1,356.18,232.36ZM211.57,336.74c1.47-1.86.26-6.77.37-8.8-.11-1-.23-2-.36-3.07a64,64,0,0,0,6.81,6.59c6.23,6.29,14.09,11.35,23.15,11.79,19.26,1.43,36-9.26,49.46-22.1-.67,2.53-1.2,5.09-1.64,7.64,0,2.28-1.66,6.58.57,8.07a9.21,9.21,0,0,0-.12,1.53,84.61,84.61,0,0,0,.39,9.06c.72,6.91,1.37,13.71,1.94,20.52-19.77,14.81-47.69,19-70.46,8.62-4.23-1.57-7.32-5.22-11.1-7.55q.18-4.06.36-8.12C211.21,352.86,211.95,344.77,211.57,336.74Zm76.06-16.07C271,336.36,245.17,350.76,224,334.83c-6.31-4.37-9-11.87-13.44-17.86a9.77,9.77,0,0,0-1-1.43c-.13-.39-.25-.78-.39-1.16a114.06,114.06,0,0,0,41.11,11.68,2.65,2.65,0,0,0,1.59-.26,52.77,52.77,0,0,0,13.87-1.08c9.43-1.48,18.82-5.36,27.56-10.52-.21.51-.41,1-.6,1.54C291.05,317.42,289.39,319.09,287.63,320.67ZM184.54,465.89c-19.25-2.52-39.06-6.55-57-14.83-8.75-3.84-16.29-9.66-23.55-15.79h0a37.61,37.61,0,0,1,.47-4.12c5.36-29.82,36.58-58.8,62-78.58-2.36,3-4.65,6-6.79,9.17-10,12.44,3.15,26.06,13.47,33.14-6.75,9.63-12.06,20.25-12,32.06,2.45,15.23,14.15,27.79,24.68,39.07Zm19.65-13c-.06.91-.11,1.82-.19,2.73a82.69,82.69,0,0,0,0,11.87q-6.49-.49-13-1.07c-28.89-36.78-35.44-41.16-4.55-81.55,5-6.62,10-13.28,14.74-20.12.34-.46.56-1.26-.18-1.43-.77,0-1.29.72-1.85,1.18a216.21,216.21,0,0,0-15.1,16.33c-2.76,3.32-5.61,6.78-8.32,10.38-1.09-1.08-2.81-2-3.66-3-6.7-6.05-16.21-15.64-8.06-24.42,9.46-14.08,21.78-26.44,34.17-38,2.28-2,4.83-4.18,7.34-6.17a129.7,129.7,0,0,1,2.7,16.06A2.06,2.06,0,0,0,209,337c-1.06,4.14-1.07,8.61-1.61,12.83-1.89,24.54-3.11,49.16-3.42,73.77C203.87,433.4,203.89,443.18,204.18,452.94Zm91-6.81c0,6.5-.12,13-.41,19.48,0,1.24-.13,2.58,0,3.86-6,.29-11.88.48-17.73.64-22.75.19-45.59-.61-68.34-2.22a3.73,3.73,0,0,0,0-1.28c.05-1,.08-2,.1-2.93a10.49,10.49,0,0,0,.09-2.79c-.16-6.42-.15-12.85-.16-19.28-.19-22.62.66-45.22,1.64-67.82a15.57,15.57,0,0,0,1.71,1.61c10.56,8.83,24.78,11.8,38.25,12,11.29,0,22.26-3.49,32.45-8.14a71,71,0,0,0,9.8-5.8c.49,6.27.93,12.56,1.26,19C295,410.31,295.31,428.22,295.16,446.12Zm18.26,22c-4.66.44-9.33.79-14,1.06.86-4.9.23-13.1.61-15q.23-23.17-.65-46.33c-1-20.11-1.89-40.13-4.13-60.19-.42-1.68-.64-9.29-2.44-11.77,1-1.81.76-5.1,1.39-6.77.46-2.36,1.06-4.79,1.76-7.22,5.82,5.34,12.16,10.12,17.65,15.83a186.53,186.53,0,0,1,21.38,25c3.05,4.36,7.44,10.3,4,15.81a67.66,67.66,0,0,1-10.59,14c-.31.33-.71.69-1.12,1.06-4-6.24-8.31-12.27-12.82-18.08-.37-1.14-15.62-16.46-14.24-11.77,3.39,4.56,6.46,9.48,10,14,10,13.71,20.38,28.2,25.7,44.57,1,5.08-1.2,10.12-3.4,14.6-4.07,7.83-8.88,15.25-13.64,22.66-1.61,2.47-3,4.81-4.71,7.29A12.42,12.42,0,0,0,313.41,468.16ZM392,441.21c-21.11,16.63-46.87,23.4-73.23,26.4a7.49,7.49,0,0,1,.89-1.23c4.71-6.9,9.49-13.77,13.93-20.85,4.53-7.53,9.55-16.47,7.17-25.51a131.7,131.7,0,0,0-10.95-22.46c3.55-3.47,7.25-6.83,10.23-10.82,5.62-7.24,7.76-15.18,1.84-23-1.41-2.22-2.92-4.37-4.47-6.49C346.71,365,356,372.87,364.08,382c8.83,10,16.3,21.74,22.82,33.44,3.42,7.11,6.76,14.07,9,21.7a3.55,3.55,0,0,0,.2.54C394.64,438.74,393.3,440.48,392,441.21Z"/><path class="cls-6" d="M204.94,195.72c-2.13,4.88-.92,13.65,4.58,15.71,3.22,1.23,6.45-1,8.1-3.69,1.21-2.05.76-4.56,1.09-6.82.24-2.71,1.42-6-.33-8.41C214.44,187.82,207,190.53,204.94,195.72Z"/><path class="cls-6" d="M218.34,159.26c2.1-3.26.29-7.86-3-9.52-4.64-2-9.59.81-13.32,3.51-2.49,1.4-13.75,12.13-8.8,14.17a1.93,1.93,0,0,0,2.12.22c4.75-1.62,10-1.84,14.79-3.58C213.08,163,216.43,162,218.34,159.26Zm-5.07-5.8c8.32,5.87-13.72,9.42-17.19,10.55C199.72,159.27,206.75,152.21,213.27,153.46Z"/><path class="cls-6" d="M284.53,207.74c1.65,2.66,4.88,4.93,8.1,3.69,5.51-2.05,6.72-10.83,4.58-15.71-2.06-5.2-9.5-7.9-13.44-3.21-1.75,2.4-.57,5.69-.33,8.4C283.77,203.18,283.33,205.68,284.53,207.74Z"/><path class="cls-6" d="M292.06,164.05c4.77,1.74,10,2,14.79,3.58a1.93,1.93,0,0,0,2.12-.22c4.95-2-6.31-12.77-8.8-14.17-3.73-2.7-8.68-5.53-13.32-3.51-3.32,1.66-5.12,6.27-3,9.52C285.72,162,289.07,163,292.06,164.05Zm-3.17-10.6c6.51-1.25,13.55,5.81,17.19,10.55C302.61,162.87,280.56,159.33,288.89,153.46Z"/><path class="cls-6" d="M235.58,239.16c3.55,4.67,8.88,9.71,15.18,9.56,6.63.07,12.34-4.36,14.95-10.31a2.37,2.37,0,0,0,.63-.61h0a1.76,1.76,0,0,0-1.09-2.7c-3.57.46-6.64,2.19-10.39,2.61a50.72,50.72,0,0,1-15.58-.74c-1.29-.19-2.63-.94-3.92-.46C234.21,237.09,234.62,238.62,235.58,239.16Zm27.36.28c-2.88,3.94-7.38,7.5-12.56,7.39-4.09-.13-7.57-2.84-10-6A40.66,40.66,0,0,0,262.93,239.44Z"/><path class="cls-6" d="M242.63,273.24c11.59.51,23.37-1.91,34.18-6,2.93-1.36,6.54-2.78,9.49-4.41A2.11,2.11,0,0,0,287,262a9.38,9.38,0,0,1,2,1.24,1.35,1.35,0,0,0,1.69-1.7c-.2-.6-.75-.92-1.11-1.41-2-2.34-5.22-5.93-8.67-4.86-1.93,1.52-.68,3,1.37,4.26a58,58,0,0,1-5.74,3.25c-6,3.23-12.38,4.89-19.13,6.19-7.22.61-14.3,1-21.59,0-2.6-2-5.58.59-3,2.9C235.92,273,239.37,273,242.63,273.24Z"/><path class="cls-7" d="M169.72,400c-3.6-3.75-10.66-11.23-16.65-18.73-3.5-4.36-9.13-5.13-14.55-4.51a312.44,312.44,0,0,1,27.92-24.25c-2.35,3-4.64,6-6.78,9.17-10,12.43,3.14,26.06,13.47,33.15C171.94,396.57,170.8,398.28,169.72,400Z"/><path class="cls-7" d="M185.82,466l-1.27-.13c-4.41-.57-8.83-1.23-13.26-2a170.38,170.38,0,0,1-9.74-25.36c-2.67-9.79-1.23-17.69,1.36-23.58a41.26,41.26,0,0,0-1.76,12C163.58,442.15,175.29,454.72,185.82,466Z"/><path class="cls-7" d="M341,428.64c.61,4.55.72,10.68-1.5,16.23-1.5,3.79-4.11,11.88-6.82,20.74q-6.93,1.21-13.92,2a7.06,7.06,0,0,1,.89-1.23c4.7-6.88,9.49-13.77,13.94-20.84C336.62,440.4,339.93,434.63,341,428.64Z"/><path class="cls-7" d="M362.36,380.13c-4.34.83-9.28,2.41-12.29,5.42-3.52,3.52-10.93,11.59-16.84,18.07-1.1-2-2.25-4.07-3.45-6.06,3.56-3.47,7.24-6.84,10.23-10.82,5.63-7.24,7.75-15.19,1.84-23-1.42-2.22-2.92-4.36-4.47-6.48C346,364.5,354.71,371.78,362.36,380.13Z"/><path class="cls-8" d="M367.93,162.77q-.06,7.69-.32,15.38c-1.5,6.69-3.16,13.37-5.11,20a11.2,11.2,0,0,0-.78,3.58c-.74.17-1.53.38-2.33.64a28.35,28.35,0,0,0-8.75,6.69c-1.4-5-2.82-10.08-3.86-15.21a83.09,83.09,0,0,1-.64-30.95c-2.16-6.69-6.33-13.07-5.72-20.4,0-1.06.11-2.54-1-3.11-2-1.78-6.35,1.4-8.9,1.78a56.08,56.08,0,0,1-29.4,1.67c8.69-4.43,17.82-9.36,23.6-17.45,1.38-2.05-.49-5-2.9-3.77-2.65,3.16-6.74,4.32-10.49,5.87a58.12,58.12,0,0,1-18.56,3.33c4.3-2.77,8.6-5.61,12.16-9.36.89-.93,5.36-5.59,6.95-8.79,2.58-2.29,4.51-4.94,2-6.1a2.22,2.22,0,0,0-1.21.34c-3,2.22-5.78,4.6-9.19,6.25-6.59,3.35-14.32,4-21.35,5.89-10.93,8.52-25.08,11.9-38.93,11.63a120.73,120.73,0,0,0,12.05-12.14,1.89,1.89,0,0,0,.32-.66c.34-.34.68-.7,1-1.06a33.29,33.29,0,0,0,6.57-4.47,17.32,17.32,0,0,0,3.81-4.43.78.78,0,0,0-.11-1,.74.74,0,0,0-.93-.11c-3.86,1.82-7.48,4.19-11.46,5.83-8,3.18-16.48,4.41-24.83,6.23a4.42,4.42,0,0,0-3.86,2.73c-11.57,15.68-30.25,24.3-48.62,29.53,2-5.68,4.55-11.16,6.55-16.84.44-1.19,1.25-2.61.34-3.79-1.19-1.5-3.16-.51-3.94.89a78.44,78.44,0,0,1-6.5,8.49,111.06,111.06,0,0,1-14.38,13.6c-.87,1-2.8,1.86-4.13,3a2.74,2.74,0,0,0-1.5,2.8,124,124,0,0,1-1,43c-.47,3.35-1.17,6.63-1.8,10a42.56,42.56,0,0,0-8.3-8.45A139.37,139.37,0,0,1,140,178.66c.08-13.54,3.35-27.45,11.59-38.19a63.41,63.41,0,0,0-14,14.55c-.61-9,2.94-17.65,6.82-25.74,14.4-30,36.58-59.1,68.46-68.8C234.22,54,257.1,57,279.15,60L268.33,46.9c12.54,4,25.23,8.16,36.31,15.27S325.16,79.88,328,92.74c-1.4,0,.11.61-1.29.61A81.42,81.42,0,0,1,357,119.92a60.65,60.65,0,0,1,8.49,17.45C367.85,145.57,368,154.23,367.93,162.77Z"/></svg>